<?xml version="1.0" encoding="UTF-8" standalone="no"?>
<!-- Created with Inkscape (http://www.inkscape.org/) -->

<svg
   xmlns:dc="http://purl.org/dc/elements/1.1/"
   xmlns:cc="http://creativecommons.org/ns#"
   xmlns:rdf="http://www.w3.org/1999/02/22-rdf-syntax-ns#"
   xmlns:svg="http://www.w3.org/2000/svg"
   xmlns="http://www.w3.org/2000/svg"
   xmlns:sodipodi="http://sodipodi.sourceforge.net/DTD/sodipodi-0.dtd"
   xmlns:inkscape="http://www.inkscape.org/namespaces/inkscape"
   width="269.375"
   height="248.5625"
   id="svg4268"
   version="1.1"
   inkscape:version="0.48.1 r9760"
   sodipodi:docname="lgm2015headerdecadecutout.svg"
   inkscape:export-filename="/home/ginger/FLOSS/LGM2015/assets/lgm2015decadecutout.png"
   inkscape:export-xdpi="90.010529"
   inkscape:export-ydpi="90.010529">
  <defs
     id="defs4270" />
  <sodipodi:namedview
     id="base"
     pagecolor="#ffffff"
     bordercolor="#666666"
     borderopacity="1.0"
     inkscape:pageopacity="0.0"
     inkscape:pageshadow="2"
     inkscape:zoom="1.4"
     inkscape:cx="267.31384"
     inkscape:cy="100.96849"
     inkscape:document-units="px"
     inkscape:current-layer="layer1"
     showgrid="false"
     inkscape:window-width="1366"
     inkscape:window-height="744"
     inkscape:window-x="0"
     inkscape:window-y="0"
     inkscape:window-maximized="1"
     fit-margin-top="0"
     fit-margin-left="0"
     fit-margin-right="0"
     fit-margin-bottom="0"
     showguides="true"
     inkscape:guide-bbox="true">
    <sodipodi:guide
       orientation="-0.26723838,0.96363045"
       position="1378.2032,-177.98268"
       id="guide3045" />
    <sodipodi:guide
       orientation="-0.26723838,0.96363045"
       position="1443.9175,-186.55411"
       id="guide3047" />
    <sodipodi:guide
       orientation="-0.26723838,0.96363045"
       position="1433.9174,-243.69696"
       id="guide3049" />
    <sodipodi:guide
       orientation="-0.96814764,-0.25038"
       position="716.77458,-89.41123"
       id="guide3051" />
    <sodipodi:guide
       orientation="-0.96814764,-0.25038"
       position="1212.4889,-135.12554"
       id="guide3053" />
    <sodipodi:guide
       orientation="-0.96814764,-0.25038"
       position="542.48886,-5.12552"
       id="guide3055" />
    <sodipodi:guide
       orientation="0,1"
       position="641.44686,-89.41123"
       id="guide3096" />
    <sodipodi:guide
       orientation="1,0"
       position="1378.2032,-364.66505"
       id="guide3098" />
    <sodipodi:guide
       orientation="1,0"
       position="418.20315,-219.2031"
       id="guide3100" />
    <sodipodi:guide
       orientation="0,1"
       position="706.09663,-339.41125"
       id="guide3102" />
    <sodipodi:guide
       orientation="-0.26723838,0.96363045"
       position="349.63172,-135.12554"
       id="guide4498" />
  </sodipodi:namedview>
  <metadata
     id="metadata4273">
    <rdf:RDF>
      <cc:Work
         rdf:about="">
        <dc:format>image/svg+xml</dc:format>
        <dc:type
           rdf:resource="http://purl.org/dc/dcmitype/StillImage" />
        <dc:title></dc:title>
      </cc:Work>
    </rdf:RDF>
  </metadata>
  <g
     inkscape:label="Layer 1"
     inkscape:groupmode="layer"
     id="layer1"
     transform="translate(238.12251,18.374045)">
    <path
       style="fill:#000000;fill-opacity:1;stroke:none"
       d="m -146.93501,-18.374045 -91.1875,25.2812501 0,223.2812549 269.374997,0 -57.8125,-223.5312549 -54.71875,15.1562499 -7.4375,-28.7812499 -51.562497,14.3125 -6.65625,-25.7187501 z"
       id="rect5882"
       inkscape:connector-curvature="0" />
    <g
       id="g5842"
       transform="matrix(0.82012013,0,0,0.82012013,-775.32594,-360.59695)">
      <path
         id="path3260"
         style="fill:#ffffff;fill-opacity:1;fill-rule:evenodd;stroke:none"
         d="m 695.7465,596.11212 c 0,0 -0.2799,-32.19176 -0.2799,-32.19176 0,0 4.59799,-0.0383 4.59799,-0.0383 0,0 0.24134,27.59382 0.24134,27.59382 0,0 9.19326,-0.0856 9.19326,-0.0856 0,0 0.0505,4.60684 0.0505,4.60684 0,0 -13.80321,0.11506 -13.80321,0.11506 z"
         inkscape:connector-curvature="0" />
      <path
         id="path3266"
         style="fill:#ffffff;fill-opacity:1;fill-rule:evenodd;stroke:none"
         d="m 717.06195,595.92712 c 0,0 -4.60703,0.0408 -4.60703,0.0408 0,0 -0.28153,-32.19854 -0.28153,-32.19854 0,0 4.59712,-0.0406 4.59712,-0.0406 0,0 0.29144,32.19829 0.29144,32.19829 z"
         inkscape:connector-curvature="0" />
      <path
         id="path3272"
         style="fill:#ffffff;fill-opacity:1;fill-rule:evenodd;stroke:none"
         d="m 721.06893,563.73446 c 0,0 9.19577,-0.0766 9.19577,-0.0766 1.25486,-0.007 2.32969,0.4254 3.22693,1.30661 0.8973,0.88143 1.35325,1.9629 1.37054,3.25412 0,0 0.0839,9.74895 0.0839,9.74895 5.5e-4,0.45779 -0.1599,0.86298 -0.4953,1.19948 -0.33469,0.33904 -0.73397,0.51542 -1.19159,0.51568 0,0 0.004,0.0479 0.004,0.0479 0.45569,-0.007 0.85371,0.16247 1.19924,0.49536 0.33737,0.33765 0.50389,0.72745 0.51598,1.19176 0,0 0.0875,9.79686 0.0875,9.79686 0.007,1.25492 -0.4254,2.32968 -1.30684,3.22699 -0.88056,0.89955 -1.95363,1.35068 -3.20599,1.36691 0,0 -9.20503,0.0792 -9.20503,0.0792 0,0 -0.27868,-32.15319 -0.27868,-32.15319 z m 4.59455,4.51514 c 0,0 0.0795,9.24135 0.0795,9.24135 0,0 2.89682,-0.0243 2.89682,-0.0243 0.49042,0.003 0.89757,-0.17121 1.23362,-0.50539 0.33195,-0.34802 0.49964,-0.76219 0.50018,-1.25197 0,0 -0.0559,-5.74996 -0.0559,-5.74996 5.4e-4,-0.48977 -0.17436,-0.90892 -0.51989,-1.24181 -0.33673,-0.33534 -0.75072,-0.49334 -1.23811,-0.4943 0,0 -2.89625,0.0264 -2.89625,0.0264 z m 0.1168,13.80048 c 0,0 0.0802,9.24367 0.0802,9.24367 0,0 2.89682,-0.0243 2.89682,-0.0243 0.49649,-10e-4 0.90661,-0.17372 1.2395,-0.51925 0.33533,-0.33673 0.50238,-0.75322 0.49173,-1.24737 0,0 -0.0444,-5.74344 -0.0444,-5.74344 -0.011,-0.4963 -0.18316,-0.90647 -0.51982,-1.24158 -0.3365,-0.3354 -0.75258,-0.50006 -1.24721,-0.49203 0,0 -2.89682,0.0243 -2.89682,0.0243 z"
         inkscape:connector-curvature="0" />
      <path
         id="path3278"
         style="fill:#ffffff;fill-opacity:1;fill-rule:evenodd;stroke:none"
         d="m 738.98204,563.57756 c 0,0 9.20894,-0.0291 9.20894,-0.0291 1.25177,-0.0183 2.32904,0.42309 3.22635,1.30452 0.89811,0.88346 1.3484,1.94454 1.36721,3.20616 0,0 0.0766,9.19576 0.0766,9.19576 0.0176,1.74884 -0.72447,3.07763 -2.21917,3.97698 0,0 2.38041,14.37341 2.38041,14.37341 0,0 -4.5476,0.0438 -4.5476,0.0438 0,0 -2.42873,-13.77536 -2.42873,-13.77536 0,0 -2.3434,0.0169 -2.3434,0.0169 0,0 0.12647,13.8003 0.12647,13.8003 0,0 -4.55914,0.0373 -4.55914,0.0373 0,0 -0.28794,-32.15062 -0.28794,-32.15062 z m 4.5939,4.51283 c 0,0 0.0843,9.29365 0.0843,9.29365 0,0 2.89849,-0.0272 2.89849,-0.0272 0.49418,-6.8e-4 0.90435,-0.17285 1.23718,-0.51861 0.33685,-0.36633 0.50366,-0.78276 0.49431,-1.23811 0,0 -0.0475,-5.75478 -0.0475,-5.75478 -0.007,-0.48264 -0.17349,-0.90667 -0.51925,-1.2395 -0.33434,-0.36269 -0.75421,-0.54101 -1.24167,-0.5422 0,0 -2.90586,0.0268 -2.90586,0.0268 z"
         inkscape:connector-curvature="0" />
      <path
         id="path3284"
         style="fill:#ffffff;fill-opacity:1;fill-rule:evenodd;stroke:none"
         d="m 756.74645,595.57795 c 0,0 -0.29209,-32.2006 -0.29209,-32.2006 0,0 13.80344,-0.11513 13.80344,-0.11513 0,0 0.0376,4.59546 0.0376,4.59546 0,0 -9.1957,0.0768 -9.1957,0.0768 0,0 0.0791,9.2048 0.0791,9.2048 0,0 6.90026,-0.0633 6.90026,-0.0633 0,0 0.0383,4.59777 0.0383,4.59777 0,0 -6.89123,0.0608 -6.89123,0.0608 0,0 0.0792,9.20503 0.0792,9.20503 0,0 9.19343,-0.0859 9.19343,-0.0859 0,0 0.0474,4.59549 0.0474,4.59549 0,0 -13.79965,0.12879 -13.79965,0.12879 z"
         inkscape:connector-curvature="0" />
      <path
         id="path3290"
         style="fill:#ffffff;fill-opacity:1;fill-rule:evenodd;stroke:none"
         d="m 783.11194,565.16894 c 1.33623,-1.36446 2.95938,-2.04627 4.85332,-2.06766 1.90368,-0.0213 3.53142,0.64744 4.89651,1.98599 1.36381,1.33391 2.04537,2.94716 2.06679,4.85106 0,0 -4.59777,0.0383 -4.59777,0.0383 -0.0119,-0.63972 -0.23976,-1.1806 -0.70557,-1.59461 -0.43173,-0.46736 -0.96972,-0.68575 -1.62163,-0.68271 -0.64223,0.003 -1.18963,0.24227 -1.64459,0.70971 -0.42618,0.43003 -0.63808,0.96622 -0.63524,1.60845 0,0 0.16561,18.40031 0.16561,18.40031 0.004,0.64901 0.22421,1.19465 0.66118,1.64584 0.45963,0.4277 1.01639,0.64362 1.65676,0.63406 0.65085,-0.008 1.18555,-0.22193 1.60945,-0.66106 0.45689,-0.46049 0.68226,-1.01738 0.66974,-1.65942 0,0 -0.0542,-6.90254 -0.0542,-6.90254 0,0 -2.30227,0.0249 -2.30227,0.0249 0,0 -0.0377,-4.59569 -0.0377,-4.59569 0,0 6.89962,-0.0656 6.89962,-0.0656 0,0 0.10154,11.49803 0.10154,11.49803 0.013,1.90774 -0.64713,3.53257 -1.98361,4.8961 -1.33841,1.35658 -2.95864,2.04806 -4.85315,2.06736 -1.90635,0.0126 -3.54251,-0.64337 -4.89594,-1.9839 -1.36462,-1.33593 -2.04852,-2.95851 -2.06695,-4.85077 0,0 -0.16538,-18.40038 -0.16538,-18.40038 -0.0125,-1.90612 0.64471,-3.54038 1.98344,-4.8958 z"
         inkscape:connector-curvature="0" />
      <path
         id="path3296"
         style="fill:#ffffff;fill-opacity:1;fill-rule:evenodd;stroke:none"
         d="m 798.81552,563.05276 c 0,0 9.19682,-0.0377 9.19682,-0.0377 1.26389,-0.01 2.33634,0.4233 3.23596,1.3041 0.89724,0.8812 1.35075,1.95386 1.35795,3.20872 0,0 0.0888,9.20461 0.0888,9.20461 0.0144,1.73749 -0.72826,3.06396 -2.22209,3.96556 0,0 2.3833,14.38384 2.3833,14.38384 0,0 -4.55987,0.0355 -4.55987,0.0355 0,0 -2.41958,-13.7774 -2.41958,-13.7774 0,0 -2.34089,0.0259 -2.34089,0.0259 0,0 0.11503,13.79324 0.11503,13.79324 0,0 -4.54763,0.0446 -4.54763,0.0446 0,0 -0.28778,-32.15091 -0.28778,-32.15091 z m 4.59455,4.51514 c 0,0 0.083,9.28902 0.083,9.28902 0,0 2.89682,-0.0243 2.89682,-0.0243 0.49398,-0.0104 0.90416,-0.18252 1.2395,-0.51925 0.33411,-0.3753 0.50115,-0.7918 0.49179,-1.24715 0,0 -0.0475,-5.75478 -0.0475,-5.75478 -0.008,-0.48495 -0.18025,-0.89506 -0.5161,-1.22815 -0.34489,-0.36474 -0.75737,-0.55236 -1.25129,-0.54178 0,0 -2.89624,0.0264 -2.89624,0.0264 z"
         inkscape:connector-curvature="0" />
      <path
         id="path3302"
         style="fill:#ffffff;fill-opacity:1;fill-rule:evenodd;stroke:none"
         d="m 821.07042,562.81239 c 0,0 4.55662,-0.0463 4.55662,-0.0463 0,0 7.18257,32.13805 7.18257,32.13805 0,0 -4.54997,0.0352 -4.54997,0.0352 0,0 -1.44079,-6.87848 -1.44079,-6.87848 0,0 -6.48724,0.007 -6.48724,0.007 0,0 -1.313,6.9616 -1.313,6.9616 0,0 -4.55965,0.0354 -4.55965,0.0354 0,0 6.61146,-32.25206 6.61146,-32.25206 z m 2.34087,9.17414 c 0,0 -2.19781,11.56854 -2.19781,11.56854 0,0 4.64567,-0.0418 4.64567,-0.0418 0,0 -2.4073,-11.52076 -2.4073,-11.52076 0,0 -0.009,0.003 -0.0437,-0.0173 l 0.003,0.0113 z"
         inkscape:connector-curvature="0" />
      <path
         id="path3308"
         style="fill:#ffffff;fill-opacity:1;fill-rule:evenodd;stroke:none"
         d="m 834.57324,562.73752 c 0,0 9.19326,-0.0856 9.19326,-0.0856 1.26389,-0.01 2.34104,0.42225 3.23596,1.3041 0.89724,0.8812 1.35325,1.9629 1.36144,3.25639 0,0 0.0856,9.19326 0.0856,9.19326 0.01,1.26435 -0.42264,2.33964 -1.30365,3.23758 -0.88166,0.89562 -1.954,1.35028 -3.20905,1.35678 0,0 -4.64567,0.0418 -4.64567,0.0418 0,0 0.11774,13.80297 0.11774,13.80297 0,0 -4.5502,0.0353 -4.5502,0.0353 0,0 -0.28547,-32.14258 -0.28547,-32.14258 z m 4.5939,4.51282 c 0,0 0.0802,9.24367 0.0802,9.24367 0,0 2.89682,-0.0243 2.89682,-0.0243 0.49392,-0.0106 0.90436,-0.18183 1.23943,-0.51948 0.33331,-0.34315 0.49964,-0.76219 0.4918,-1.24714 0,0 -0.0475,-5.75479 -0.0475,-5.75479 -0.008,-0.48495 -0.18024,-0.89506 -0.5161,-1.22815 -0.34569,-0.33259 -0.7538,-0.50446 -1.24964,-0.50082 0,0 -2.89497,0.031 -2.89497,0.031 z"
         inkscape:connector-curvature="0" />
      <path
         id="path3314"
         style="fill:#ffffff;fill-opacity:1;fill-rule:evenodd;stroke:none"
         d="m 851.59707,562.53628 c 0,0 4.59799,-0.0383 4.59799,-0.0383 0,0 0.12409,13.8007 0.12409,13.8007 0,0 4.59769,-0.0485 4.59769,-0.0485 0,0 -0.12337,-13.78818 -0.12337,-13.78818 0,0 4.598,-0.0383 4.598,-0.0383 0,0 0.28813,32.18724 0.28813,32.18724 0,0 -4.5977,0.0385 -4.5977,0.0385 0,0 -0.12397,-13.79126 -0.12397,-13.79126 0,0 -4.59793,0.0386 -4.59793,0.0386 0,0 0.1175,13.80303 0.1175,13.80303 0,0 -4.5977,0.0385 -4.5977,0.0385 0,0 -0.28273,-32.20195 -0.28273,-32.20195 z"
         inkscape:connector-curvature="0" />
      <path
         id="path3320"
         style="fill:#ffffff;fill-opacity:1;fill-rule:evenodd;stroke:none"
         d="m 874.63139,594.53414 c 0,0 -4.59793,0.0386 -4.59793,0.0386 0,0 -0.28897,-32.19025 -0.28897,-32.19025 0,0 4.59591,-0.045 4.59591,-0.045 0,0 0.29099,32.19666 0.29099,32.19666 z"
         inkscape:connector-curvature="0" />
      <path
         id="path3326"
         style="fill:#ffffff;fill-opacity:1;fill-rule:evenodd;stroke:none"
         d="m 880.4022,564.3072 c 1.335,-1.36436 2.95851,-2.04852 4.85378,-2.06779 1.90473,-0.0122 3.53941,0.64748 4.89541,1.9838 1.36384,1.33765 2.04805,2.95864 2.06755,4.85385 0,0 0.0253,2.30266 0.0253,2.30266 0,0 -4.60789,0.0413 -4.60789,0.0413 0,0 -0.016,-2.30523 -0.016,-2.30523 -0.004,-0.6425 -0.23765,-1.17121 -0.70518,-1.59771 -0.42803,-0.45493 -0.97101,-0.68589 -1.61351,-0.68223 -0.64688,0.0149 -1.19669,0.24473 -1.65291,0.71302 -0.42687,0.43022 -0.63764,0.9651 -0.62445,1.61494 0,0 0.15654,18.39908 0.15654,18.39908 0.012,0.64019 0.23096,1.18305 0.66243,1.64949 0.45925,0.4263 1.01376,0.63412 1.66483,0.62807 0.63947,-0.0128 1.17425,-0.22852 1.60112,-0.65874 0.45391,-0.46765 0.68063,-1.01694 0.67671,-1.66934 0,0 -0.0221,-2.29108 -0.0221,-2.29108 0,0 4.59631,-0.0381 4.59631,-0.0381 0,0 0.0221,2.29108 0.0221,2.29108 0.0128,1.90705 -0.64639,3.53163 -1.98107,4.89715 -1.33764,1.36384 -2.96003,2.04844 -4.85454,2.06775 -1.90612,0.0126 -3.53157,-0.6489 -4.89594,-1.98391 -1.36477,-1.33739 -2.04852,-2.95851 -2.06755,-4.85385 0,0 -0.16465,-18.39683 -0.16465,-18.39683 -0.0126,-1.90711 0.64706,-3.53281 1.98375,-4.89739 z"
         inkscape:connector-curvature="0" />
      <path
         id="path3332"
         style="fill:#ffffff;fill-opacity:1;fill-rule:evenodd;stroke:none"
         d="m 894.76087,585.15812 c 0,0 0.0227,2.2934 0.0227,2.2934 0.0221,1.90448 0.70628,3.52547 2.07013,4.86311 1.35626,1.33726 2.99074,1.9962 4.8929,1.97477 1.89778,-0.0102 3.51852,-0.70435 4.85642,-2.05829 1.337,-1.36616 1.99363,-3 1.98403,-4.89547 0,0 -0.048,-4.59606 -0.048,-4.59606 -0.007,-1.7515 -0.60845,-3.28074 -1.78961,-4.58925 -1.38618,-1.526 -3.11507,-2.27348 -5.16415,-2.2512 -0.6425,0.004 -1.19848,-0.21123 -1.66576,-0.62782 -0.43123,-0.4665 -0.64927,-1.00962 -0.65294,-1.65212 0,0 -0.0499,-4.603 -0.0499,-4.603 -10e-4,-0.64315 0.20941,-1.17803 0.63372,-1.61751 0.45647,-0.45839 1.00371,-0.69752 1.64621,-0.70119 0.65177,-0.006 1.18986,0.21611 1.61789,0.67104 0.46058,0.42842 0.69714,0.9664 0.71007,1.60633 0,0 0.016,2.30523 0.016,2.30523 0,0 4.18629,-0.0416 4.18629,-0.0416 0,0 0.41234,0.003 0.41234,0.003 0,0 -0.016,-2.30523 -0.016,-2.30523 -0.0221,-1.90447 -0.70371,-3.5162 -2.06987,-4.8532 -1.36321,-1.33533 -2.99036,-2.00379 -4.89547,-1.98404 -1.89547,0.01 -3.51621,0.70371 -4.85385,2.06756 -1.33726,1.35626 -1.99388,2.9901 -1.98108,4.89714 0,0 0.0381,4.59632 0.0381,4.59632 0.0163,1.74893 0.61282,3.26954 1.78704,4.57998 1.39544,1.52343 3.12433,2.27092 5.17598,2.2579 0.6425,-0.004 1.1806,0.21868 1.61789,0.67103 0.46058,0.42843 0.69714,0.96641 0.70081,1.60891 0,0 0.0381,4.59631 0.0381,4.59631 0.0106,0.64057 -0.2129,1.20144 -0.67233,1.65815 -0.42199,0.43884 -0.95751,0.65726 -1.6076,0.66054 -0.64251,0.004 -1.19656,-0.20427 -1.6565,-0.63039 -0.43793,-0.45466 -0.65853,-1.00704 -0.6622,-1.64954 0,0 -0.0128,-2.29366 -0.0128,-2.29366 0,0 -4.60853,0.039 -4.60853,0.039 z"
         inkscape:connector-curvature="0" />
      <path
         id="path3404"
         style="fill:#decade;fill-opacity:1;fill-rule:nonzero;stroke:none"
         d="m 758.5957,430.20785 c 0,0 -91.3722,25.35156 -91.3722,25.35156 0,0 25.35156,91.3722 25.35156,91.3722 0,0 75.76649,-21.0217 75.76649,-21.0217 0,0 5.6332,20.30318 5.6332,20.30318 0,0 75.65579,-20.99098 75.65579,-20.99098 0,0 5.62503,20.27377 5.62503,20.27377 0,0 63.9173,-17.7341 63.9173,-17.7341 0,0 -17.73416,-63.91753 -17.73416,-63.91753 0,0 -62.07841,17.22389 -62.07841,17.22389 0,0 -9.39766,-33.87106 -9.39766,-33.87106 0,0 -61.88897,17.17133 -61.88897,17.17133 0,0 -9.47797,-34.16056 -9.47797,-34.16056 z"
         inkscape:connector-curvature="0" />
      <text
         xml:space="preserve"
         style="font-size:46px;font-style:normal;font-variant:normal;font-weight:bold;font-stretch:normal;line-height:81.99999928%;letter-spacing:0px;word-spacing:0px;fill:#b2b2b2;fill-opacity:1;stroke:none;font-family:OSP-DIN;-inkscape-font-specification:OSP-DIN Bold"
         x="691.14099"
         y="633.14886"
         id="text5604"
         sodipodi:linespacing="81.999999%"><tspan
           sodipodi:role="line"
           id="tspan5606"
           x="691.14099"
           y="633.14886"
           dx="2.7779193 -1.5152287 0 0 -0.50507629 -0.50507629 -0.25253814 0 -0.50507629 0 -1.0101525 -2.7779193"
           style="fill:#000000;fill-opacity:1"><tspan
             id="tspan5840"
             style="fill:#decade;fill-opacity:1">MEETING</tspan><tspan
             style="fill:#ffffff;fill-opacity:1"
             id="tspan4461"> 2015</tspan></tspan><tspan
           sodipodi:role="line"
           x="691.14099"
           y="670.86884"
           dx="3.0304577 -1.0101525 -1.5152287 -0.50507629 -0.75761437 3.3002177e-08 -1.2626907 2.7779193 -1.5152287 0 0 -0.50507629 -0.50507629 -0.25253814 0 -0.50507629 0 -1.0101525 -2.7779193"
           id="tspan5608"
           style="fill:#decade;fill-opacity:1">TORONTO</tspan><tspan
           sodipodi:role="line"
           x="691.14099"
           y="707.37054"
           dx="3.2829955 -0.75761437 0 -1.0101525 0 -0.25253814 -0.50507629 -0.50507629 0 -1.5152287 0 -1.2626907 0 0 0 0 5.0507627 -1.0101525 -1.5152287 -0.50507629 -0.75761437 0 -0.25253814 2.7779193 -1.5152287 0 0 -0.50507629 -0.50507629 -0.25253814 0 -0.50507629 0 -1.0101525 -2.7779193"
           style="font-size:44px;fill:#ffffff;fill-opacity:1"
           id="tspan5610"
           dy="0.75761437">29 APRIL - 2 MAY</tspan></text>
    </g>
    <path
       style="fill:#ffffff;fill-opacity:1;stroke:none"
       d="M 314.8091,101.45353 624.72724,18.278871 591.7159,-109.36651 254.26652,-15.783516 z"
       id="path4504"
       inkscape:connector-curvature="0"
       transform="translate(180.08064,319.59971)"
       sodipodi:nodetypes="ccccc" />
    <path
       style="fill:#ffffff;fill-opacity:1;stroke:none"
       d="M 509.96785,-86.695773 624.72724,18.278871 649.86998,115.49865 1066.3447,0 1000.2128,-222.65274 z"
       id="path4506"
       inkscape:connector-curvature="0"
       transform="translate(180.08064,319.59971)" />
  </g>
</svg>
